PathFileType	4	(X/Y/Z)	48_1_22_p0_0-311_filt_butterworth.trc
DataRate	CameraRate	NumFrames	NumMarkers	Units	OrigDataRate	OrigDataStartFrame	OrigNumFrames
59.0	59.0	6	27	m	59.0	272	311
Frame#	Time	RHip			RKnee			RAnkle			RBigToe			RSmallToe			RHeel			LHip			LKnee			LAnkle			LBigToe			LSmallToe			LHeel			Neck			Head			Nose			RShoulder			RElbow			RWrist			RThumb			RIndex			RPinky			LShoulder			LElbow			LWrist			LThumb			LIndex			LPinky			
		X1	Y1	Z1	X2	Y2	Z2	X3	Y3	Z3	X4	Y4	Z4	X5	Y5	Z5	X6	Y6	Z6	X7	Y7	Z7	X8	Y8	Z8	X9	Y9	Z9	X10	Y10	Z10	X11	Y11	Z11	X12	Y12	Z12	X13	Y13	Z13	X14	Y14	Z14	X15	Y15	Z15	X16	Y16	Z16	X17	Y17	Z17	X18	Y18	Z18	X19	Y19	Z19	X20	Y20	Z20	X21	Y21	Z21	X22	Y22	Z22	X23	Y23	Z23	X24	Y24	Z24	X25	Y25	Z25	X26	Y26	Z26	X27	Y27	Z27	
272	4.610169491525424	0.20425422719808742	0.4720933373575731	0.7291678179452188	0.17093334271320487	0.5718568454068176	1.175259763654003	0.13951799487992678	0.6386346088147938	1.5242148084531295	0.10274846472087232	0.4809563832999393	1.556971488358572	0.1654582724538896	0.4875474444262686	1.5628364531016021	0.13004654421728248	0.7559063207632587	1.5954180149025996	-0.018236376348876683	0.5486590195939658	0.7337567227132135	-0.029033073013575893	0.6095827280287412	1.150155541665363	-0.022756777700253455	0.685209637440701	1.527264869545622	-0.05614508545098978	0.48952755042514734	1.5301029518403615	-0.09930043633857186	0.5723561746590441	1.5480115101813074	0.0010977135196154739	0.7412782686999777	1.587307251619284	0.11532584312497234	0.4590752854521224	0.17079008935267753	0.1258382900271766	0.3958233359178132	-0.07636231797341855	0.11240626740702997	0.3688951321614563	0.05571026106791746	0.27331246311734403	0.45587286370214447	0.2738165318084636	0.2765742463496432	0.3776985549040087	0.5085735025143349	0.1257242582466223	0.32137577801174694	0.6701916878420722	0.04512857918060491	0.35208126118970534	0.7608200763268279	0.04645057412228721	0.36185774140894017	0.7772147517112836	0.05011189464216473	0.35921205586679067	0.7847006550742724	-0.060925763838479835	0.45584884239899	0.25159105368865986	-0.08149830695664456	0.4391604589605887	0.4788803718560312	0.008616683821103758	0.30188996802616486	0.6492143319563566	0.06547290496648205	0.32898622350522594	0.7375241242115474	0.0656034927433299	0.3411803252506159	0.7730912324077783	0.04939657355126083	0.3453663073262976	0.7697554460752606
273	4.627118644067797	0.20419162246353365	0.4740060705361434	0.7306574188814182	0.172122624239501	0.5753903065845392	1.1762187074767085	0.13826809533786008	0.6352668086920097	1.5232944021982615	0.10263163825360373	0.4840735039855314	1.5581617448483835	0.1653471946272568	0.48749810105779534	1.5628542791253608	0.1311266681862021	0.7506228374338776	1.5920262806209795	-0.018290904403071982	0.5445438646245991	0.733477925041421	-0.028869710975244038	0.6097698754779901	1.150298181172035	-0.022711373634552015	0.68516641209349	1.5270759459676122	-0.056035835688894996	0.48991239997681285	1.5303433160449977	-0.09933381467654323	0.5726888983635137	1.5481047198705005	0.0022193442374513466	0.741006780488243	1.585894408022913	0.11532592614248646	0.45910726946853875	0.17087937630352365	0.12579111913144855	0.3956034861589623	-0.07716283331873376	0.11283253377448368	0.3700491992645445	0.05569448405052424	0.2734352706930636	0.45621910918740793	0.2747369455155582	0.27654263783822614	0.3775913406592831	0.5085727604054887	0.12432251480488943	0.3221238314952527	0.669099077635079	0.04706648269015985	0.3578876845663371	0.7626691443354963	0.048042496643388	0.3673316185747594	0.7783510879805212	0.0500638636745524	0.35924636565579454	0.7824267271175989	-0.06090493939558318	0.4558479688493812	0.25163186033011364	-0.0814813818423894	0.43916396208117897	0.4788310462325488	0.008420863720980692	0.3014005138971376	0.6491013095321687	0.06542474779229698	0.33581973397395964	0.7373136810009583	0.06458815348977649	0.3421693334076559	0.7717397132385238	0.048614364973440724	0.34349536221330834	0.7707007324762275
274	4.6440677966101696	0.2038062241688293	0.4785003403328941	0.7329781057465903	0.1725951338105547	0.5767556128287655	1.1762317558684106	0.1377737031349012	0.6338895643697151	1.5240625886532768	0.10313513902895215	0.48827565819235097	1.5598412561243542	0.16533437219804276	0.48736444086741315	1.5628810838913978	0.13163795038764664	0.7440853193445269	1.5890444545568059	-0.01843785121470893	0.5393747653639297	0.733139054155183	-0.028615006832058566	0.6101616572168946	1.1505348184942898	-0.02264287599611741	0.6852092221888135	1.5270570041566656	-0.056012729192200385	0.4901069063920007	1.530490312262287	-0.09934639590185598	0.5726936373364336	1.5480217450910698	0.0023863798888802473	0.740467322746875	1.583909295174211	0.11533303639456145	0.4591405260597566	0.17085409449806654	0.1257597890168932	0.3956474766980963	-0.07747679022787238	0.1128010360637297	0.3701373695126088	0.0556904397805142	0.27348892228583027	0.4563768941478882	0.27508810783901955	0.27656405960747815	0.3771950151104576	0.5089109683721473	0.12255168304048583	0.3209164052113934	0.6690679224929337	0.04748973102025159	0.36077555058448707	0.7625396559671778	0.04846688457704252	0.369311428824157	0.7773652265589868	0.05003004471537744	0.3592788580203233	0.7805963640693846	-0.06043255951305069	0.45709782544422345	0.2513113679138525	-0.08147150189775405	0.4391715658579393	0.4788035926523242	0.008173938362100964	0.30054772694602294	0.6488754935918573	0.06509041806494356	0.3376698475109132	0.736416530776889	0.06392513475446127	0.3417499461588881	0.7693015671503173	0.0470666461069324	0.34044647129473893	0.7714908067500087
275	4.661016949152542	0.20315478749138413	0.4841321818173794	0.7352711925771661	0.1726142360241496	0.5767416496518093	1.176023198843337	0.13790222661298832	0.6341378677403395	1.525687212515934	0.10413260272390645	0.4947466329201011	1.5628747037552164	0.16582429414517408	0.48733163931774726	1.5630063393848745	0.1308186418100341	0.7402385224033117	1.5880876463038662	-0.018726077767395932	0.5354729725220483	0.7329968786943708	-0.028409065017130777	0.6105113824019178	1.1507029527290868	-0.022557629937200636	0.6854312458547815	1.5276561286335897	-0.05638223255396656	0.4890566634693424	1.5300189819338286	-0.09928076224106386	0.5712568935318131	1.5473970097332264	0.001425321455858391	0.7397394341540993	1.5823006710815375	0.11538191768348671	0.4591797093786424	0.17043317893410692	0.1257498299993366	0.39594845850183946	-0.07747094750999821	0.11268216754880919	0.37001106875021844	0.055684068626843046	0.2734946853244375	0.4564237480257224	0.27508319546553867	0.27658496523209725	0.3769745416400824	0.5098928372252709	0.12131917644002371	0.3191552561952637	0.6703706545180682	0.04685784667190421	0.3623919803881892	0.7609522156280274	0.04722882521897415	0.36902858768651264	0.7749036001385888	0.05001245393219105	0.35922556718007204	0.779613293643141	-0.05930836349392833	0.46027748607137686	0.25035677295495046	-0.0814740297447522	0.43915370179206137	0.478746210304714	0.007787290115307042	0.299847357637183	0.648642886176822	0.06403257951430738	0.3370715202712401	0.7356636474995263	0.06287454640253215	0.3410093651894141	0.7666899244984838	0.04541099549428409	0.33899544473545246	0.7719541433469701
276	4.677966101694915	0.20257997817893098	0.4881938047289864	0.7366363208092134	0.1725277483356035	0.576425333673867	1.1758994688977813	0.13819450218021542	0.6348288540199969	1.526670484765979	0.10542745628562725	0.5015601958869961	1.566369062414069	0.16713397681411804	0.48759634124644	1.56328902195348	0.12909648370285307	0.7413041415148633	1.5891874864321842	-0.019060915628264258	0.5339080127824213	0.7330037989489515	-0.028299455683969733	0.6106285839445039	1.1507283093036984	-0.022463264495184262	0.6858448455958629	1.5291928473614353	-0.057370971234113395	0.4858011605287858	1.5284303491498785	-0.09912720971356362	0.5675162416067445	1.5461377647647288	-0.000169272230258248	0.7391470505461311	1.581508212914414	0.11549922208556598	0.45922673242403367	0.169444115484144	0.1257566450447027	0.39628693662228337	-0.0773956617047279	0.11262022312398184	0.3699927658017621	0.055676382050454915	0.27348807990007795	0.45644912096984824	0.275000595991261	0.2765907375096559	0.3769286182358067	0.5112519740340774	0.12130234866955565	0.3190925994207645	0.6722514850526218	0.045795336672375606	0.3636904752854876	0.758733793342047	0.04504007295633874	0.3683500683078712	0.7723163579903376	0.04999228986802853	0.3590174994476154	0.7796184379932423	-0.05786795712453339	0.4644491924974932	0.24906111711199713	-0.08148773200087608	0.4390978318819001	0.47865499525177	0.006850758424838161	0.30058976408855215	0.648675016513212	0.0625666968694363	0.3362467565809792	0.735288288341727	0.06150065692179138	0.34051826860366124	0.7646125050606756	0.04460845638955935	0.34241748694287705	0.7722702105622964
277	4.694915254237288	0.20227003134136523	0.4895264554019743	0.7368651242758756	0.17248097492312148	0.5763113498880922	1.1758823640489426	0.1383502480882228	0.635216627668664	1.526743016938484	0.10671392065420579	0.5043991753126378	1.5682355284825835	0.1688243663284044	0.4881167079812062	1.563632961383669	0.1278872766429106	0.7462736393835219	1.591631423047737	-0.019294797111760794	0.5338505614681827	0.7330893182932028	-0.028243902882691994	0.6105879326185005	1.1506869490630414	-0.02237896245325712	0.68626483349549	1.5311835966769898	-0.058692446416475814	0.4811953069657414	1.5261235227905845	-0.09899852555278141	0.5625342137246513	1.5449088160282562	-0.001472930825061294	0.7390825557473639	1.5813331279135896	0.1156439207189499	0.4592806054653647	0.16826542679254863	0.12576805555355347	0.3963864306911916	-0.07736108492733526	0.11261772119065601	0.37005648310154626	0.05567036877375867	0.2734929428506591	0.45648222203876576	0.2749561513234773	0.2765933936728128	0.37695059543770043	0.5123206231178796	0.12248470963430916	0.32158903314059356	0.673760878205804	0.04494308069562742	0.3642385984666682	0.7566869664809786	0.043281538399158145	0.3679894110454611	0.7706722495997035	0.04995066560077654	0.35870251431095523	0.7803441516383423	-0.05679776312225169	0.4675732127168079	0.24813688976723988	-0.08151783154289707	0.4390356660571739	0.4786463371082902	0.004952734925428251	0.3036454958311209	0.6491343816658895	0.06144279470147284	0.33589404306711723	0.7351716774227743	0.06039814998479935	0.3402814190386243	0.7626934960736623	0.0448086260481855	0.34968351830942296	0.7725486956246731
